<svg width="500" height="500" xmlns="http://www.w3.org/2000/svg">
 <g>
  <title>Layer 1</title>
  <path fill="#e5e5e5" stroke="#000000" opacity="NaN" id="svg_36"/>
  <g id="svg_42" stroke="null">
   <path fill="#e5e5e5" opacity="NaN" d="m263.85348,98.2343c7.78443,45.65816 -46.10778,107.32633 -46.10778,106.93102c0.5988,0.39531 60.47904,-67.20249 147.90419,-73.13212c87.42515,-5.92963 -109.58084,-79.45706 -101.79641,-33.7989z" id="svg_40" stroke="#000000"/>
   <ellipse fill="#e5e5e5" cx="357.68492" cy="78.31977" id="svg_37" rx="138.92216" ry="71.45206" stroke="#000000"/>
   <ellipse fill="#e5e5e5" cx="292.21267" cy="128.41124" id="svg_41" rx="30.54124" ry="18.63096" stroke="null"/>
  </g>
  <g id="svg_1">
   <path fill="#fff" stroke="#000" opacity="NaN" d="m54.16963,163.30996" id="svg_4"/>
   <g id="svg_16">
    <ellipse fill="#a8ebfe" stroke="#000" cx="195.01439" cy="186.06999" id="svg_13" rx="22.60269" ry="23.51593"/>
    <ellipse fill="#000000" stroke="#000" cx="195.47101" cy="186.70455" id="svg_14" rx="7.07761" ry="6.62099"/>
   </g>
   <g id="svg_21">
    <ellipse fill="#a8ebfe" stroke="#000" cx="45.24303" cy="187.43985" id="svg_19" rx="22.60269" ry="23.51593"/>
    <ellipse fill="#000000" stroke="#000" cx="45.69965" cy="188.80971" id="svg_20" rx="7.07761" ry="6.62099"/>
   </g>
   <path fill="#f6d2a3" stroke="#000" opacity="NaN" d="m43.11916,329.91279c0,0 -36.07298,2.73972 -36.98622,10.50226c-0.91324,7.76254 11.87212,4.5662 11.72058,4.26246c0.15154,0.30374 -14.4603,0.76036 -11.72058,5.78318c2.73972,5.02282 35.15974,-3.19634 35.15974,-3.19634c0,0 19.17804,-5.47944 16.89494,-10.95888c-2.2831,-5.47944 -15.06846,-6.39268 -15.06846,-6.39268z" id="svg_22"/>
   <path transform="rotate(-158.432 209.184 332.506)" fill="#f6d2a3" stroke="#000" opacity="NaN" d="m220.2201,321.41876c0,0 -36.07298,2.73972 -36.98622,10.50226c-0.91324,7.76254 11.87212,4.5662 11.72059,4.26245c0.15153,0.30375 -14.46031,0.76037 -11.72059,5.78319c2.73972,5.02281 35.15974,-3.19634 35.15974,-3.19634c0,0 19.17804,-5.47944 16.89494,-10.95888c-2.2831,-5.47944 -15.06846,-6.39268 -15.06846,-6.39268z" id="svg_23"/>
   <path transform="rotate(-144.103 186.885 453.651)" fill="#f6d2a3" stroke="#000" opacity="NaN" d="m198.46005,442.58556c0,0 -33.19161,0.18591 -36.98622,10.50226c-3.79461,10.31635 11.87212,4.5662 11.72059,4.26245c0.15153,0.30375 -18.30906,0.86686 -11.72059,5.78319c6.58847,4.91633 35.15974,-3.19634 35.15974,-3.19634c0,0 19.17804,-5.47944 16.89494,-10.95888c-2.2831,-5.47944 -15.06846,-6.39268 -15.06846,-6.39268z" id="svg_24"/>
   <path transform="rotate(-36.2097 48.0692 469.111)" fill="#f6d2a3" stroke="#000" opacity="NaN" d="m59.64439,458.04608c0,0 -33.1916,0.18591 -36.98622,10.50226c-3.79461,10.31635 11.87212,4.5662 11.72059,4.26245c0.15153,0.30375 -18.30906,0.86686 -11.72059,5.78319c6.58848,4.91633 35.15974,-3.19634 35.15974,-3.19634c0,0 19.17804,-5.47944 16.89494,-10.95888c-2.2831,-5.47944 -15.06846,-6.39268 -15.06846,-6.39268z" id="svg_25"/>
   <path fill="#a8ebfe" stroke="#000" opacity="NaN" d="m113.52119,169.39672c28.21012,-0.82648 54.29688,-8.04564 81.64844,16.91324c13.67578,12.47944 0.25951,111.77593 1.05871,142.1967c0.79919,30.42077 8.76638,81.37216 -8.93695,121.97695c-17.70332,40.60479 -118.9344,34.98283 -144.03693,7.62289c-25.10253,-27.35994 -15.97094,-93.81979 -13.46257,-148.62324c2.50837,-54.80345 -1.48869,-87.76469 10.42854,-115.06773c11.91723,-27.30304 59.1957,-24.60557 73.30076,-25.01881z" id="svg_5"/>
   <path fill="#fff" stroke="#000" opacity="undefined" d="m80.17447,265.75018c-16.90251,0 -30.59354,-12.87366 -30.59354,-28.76706c0,-15.8934 13.69103,-28.76706 30.59354,-28.76706c16.90251,0 30.59354,12.87366 30.59354,28.76706c0,15.8934 -13.69103,28.76706 -30.59354,28.76706z" id="svg_6"/>
   <path fill="#fff" stroke="#000" opacity="undefined" d="m160.99621,267.57666c-16.90251,0 -30.59354,-12.87366 -30.59354,-28.76706c0,-15.8934 13.69103,-28.76706 30.59354,-28.76706c16.90251,0 30.59354,12.87366 30.59354,28.76706c0,15.8934 -13.69103,28.76706 -30.59354,28.76706z" id="svg_8"/>
   <g id="svg_18">
    <path fill="#fff" stroke="#000" opacity="NaN" d="m108.48491,294.51724c0,13.6986 3.65296,17.35156 7.76254,16.89494c4.10958,-0.45662 1.82648,-24.20086 1.82648,-24.20086c0,0 -9.58902,-6.39268 -9.58902,7.30592z" id="svg_11"/>
    <path fill="#fff" opacity="NaN" d="m117.61731,294.64994c0,12.48298 4.14252,15.81177 8.80286,15.39567c4.66034,-0.4161 2.07126,-22.05326 2.07126,-22.05326c0,0 -10.87412,-5.82539 -10.87412,6.65759z" id="svg_12" stroke="#000"/>
    <path fill="#f6d2a3" opacity="NaN" d="m121.2884,277.15987c12.61017,-0.22518 25.67071,6.30509 22.0678,14.41163c-3.60291,8.10654 -11.25908,-2.477 -21.61744,-2.477c-10.35836,0 -20.71671,12.61017 -24.31962,1.12591c-3.60291,-11.48427 11.25908,-12.83536 23.86926,-13.06054z" id="svg_10" stroke="#000"/>
    <path fill="#000000" opacity="undefined" d="m119.44379,279.90539c-6.55918,0 -11.87212,-2.14561 -11.87212,-4.79451c0,-2.6489 5.31294,-4.79451 11.87212,-4.79451c6.55918,0 11.87212,2.14561 11.87212,4.79451c0,2.6489 -5.31294,4.79451 -11.87212,4.79451z" id="svg_9" stroke="#000"/>
   </g>
   <path fill="#000000" stroke="#000" opacity="undefined" d="m66.14934,244.62962c-4.08912,0 -7.40131,-3.16498 -7.40131,-7.07236c0,-3.90738 3.31219,-7.07236 7.40131,-7.07236c4.08912,0 7.40131,3.16498 7.40131,7.07236c0,3.90738 -3.31219,7.07236 -7.40131,7.07236z" id="svg_26"/>
   <ellipse fill="#000000" stroke="#000" cx="174.37292" cy="239.53094" id="svg_28" rx="7.40131" ry="7.07236"/>
   <ellipse fill="#fff" stroke="#000" cx="67.6108" cy="235.80016" id="svg_31" rx="2.94118" ry="2.94118"/>
   <ellipse fill="#fff" stroke="#000" cx="177.55525" cy="236.35264" id="svg_32" rx="2.94118" ry="2.94118"/>
   <ellipse fill="#fff" cx="125.14091" cy="273.37933" id="svg_33" rx="3.36048" ry="1.82596" stroke="#000"/>
  </g>
  <ellipse ry="5.66041" rx="5.66041" id="svg_17" cy="77.25553" cx="309.15751" stroke-width="0" stroke="null" fill="#000000"/>
  <ellipse ry="5.66041" rx="5.66041" id="svg_27" cy="77.25553" cx="351.23231" stroke-width="0" stroke="null" fill="#000000"/>
  <ellipse ry="5.66041" rx="5.66041" id="svg_34" cy="77.25553" cx="395.73789" stroke-width="0" stroke="null" fill="#000000"/>
 </g>

</svg>